<svg width="16" height="16" viewBox="0 0 16 16" fill="none" xmlns="http://www.w3.org/2000/svg">
<path d="M13.8867 5.33999L9.52002 1.84666C8.66668 1.16666 7.33335 1.15999 6.48668 1.83999L2.12002 5.33999C1.49335 5.83999 1.11335 6.83999 1.24668 7.62666L2.08668 12.6533C2.28002 13.78 3.32668 14.6667 4.46668 14.6667H11.5333C12.66 14.6667 13.7267 13.76 13.92 12.6467L14.76 7.61999C14.88 6.83999 14.5 5.83999 13.8867 5.33999ZM8.50002 12C8.50002 12.2733 8.27335 12.5 8.00002 12.5C7.72668 12.5 7.50002 12.2733 7.50002 12V9.99999C7.50002 9.72666 7.72668 9.49999 8.00002 9.49999C8.27335 9.49999 8.50002 9.72666 8.50002 9.99999V12Z" fill="white"/>
</svg>
