<svg width="44" height="31" viewBox="0 0 44 31" fill="none" xmlns="http://www.w3.org/2000/svg">
<rect width="44" height="31" rx="4" fill="white" fill-opacity="0.1"/>
<rect x="0.5" y="0.5" width="43" height="30" rx="3.5" stroke="#CACECE" stroke-opacity="0.4"/>
<path d="M29.3 12.5917C29.3 12.75 29.2417 12.9083 29.1167 13.0333C28.875 13.275 28.475 13.275 28.2333 13.0333L24.0583 8.85835C23.8167 8.61668 23.8167 8.21668 24.0583 7.97502C24.3 7.73335 24.7 7.73335 24.9417 7.97502L29.1167 12.15C29.2333 12.275 29.3 12.4333 29.3 12.5917Z" fill="#949D9E"/>
<path d="M25.1167 8.41665V22.5833C25.1167 22.925 24.8334 23.2083 24.4917 23.2083C24.15 23.2083 23.8667 22.925 23.8667 22.5833V8.41665C23.8667 8.07498 24.15 7.79165 24.4917 7.79165C24.8334 7.79165 25.1167 8.07498 25.1167 8.41665Z" fill="#949D9E"/>
<path d="M20.1334 22.5833C20.1334 22.7417 20.075 22.9 19.95 23.025C19.7084 23.2667 19.3084 23.2667 19.0667 23.025L14.8917 18.85C14.65 18.6083 14.65 18.2083 14.8917 17.9667C15.1334 17.725 15.5334 17.725 15.775 17.9667L19.95 22.1417C20.0667 22.2583 20.1334 22.425 20.1334 22.5833Z" fill="#949D9E"/>
<path d="M20.1333 8.41665V22.5833C20.1333 22.925 19.85 23.2083 19.5083 23.2083C19.1666 23.2083 18.8833 22.925 18.8833 22.5833V8.41665C18.8833 8.07498 19.1666 7.79165 19.5083 7.79165C19.85 7.79165 20.1333 8.07498 20.1333 8.41665Z" fill="#949D9E"/>
</svg>
