<svg width="16" height="16" viewBox="0 0 16 16" fill="none" xmlns="http://www.w3.org/2000/svg">
<path d="M13.18 7.49998H10.4867C9.14667 7.49998 8.5 6.90665 8.5 5.67998V2.65331C8.5 1.42665 9.15333 0.833313 10.4867 0.833313H13.18C14.52 0.833313 15.1667 1.42665 15.1667 2.65331V5.67331C15.1667 6.90665 14.5133 7.49998 13.18 7.49998ZM10.4867 1.83331C9.59333 1.83331 9.5 2.08665 9.5 2.65331V5.67331C9.5 6.24665 9.59333 6.49331 10.4867 6.49331H13.18C14.0733 6.49331 14.1667 6.23998 14.1667 5.67331V2.65331C14.1667 2.07998 14.0733 1.83331 13.18 1.83331H10.4867Z" fill="#4E5556"/>
<path d="M13.18 15.1667H10.4867C9.14667 15.1667 8.5 14.5133 8.5 13.18V10.4867C8.5 9.14667 9.15333 8.5 10.4867 8.5H13.18C14.52 8.5 15.1667 9.15333 15.1667 10.4867V13.18C15.1667 14.5133 14.5133 15.1667 13.18 15.1667ZM10.4867 9.5C9.7 9.5 9.5 9.7 9.5 10.4867V13.18C9.5 13.9667 9.7 14.1667 10.4867 14.1667H13.18C13.9667 14.1667 14.1667 13.9667 14.1667 13.18V10.4867C14.1667 9.7 13.9667 9.5 13.18 9.5H10.4867Z" fill="#4E5556"/>
<path d="M5.51337 7.49998H2.82004C1.48004 7.49998 0.833374 6.90665 0.833374 5.67998V2.65331C0.833374 1.42665 1.48671 0.833313 2.82004 0.833313H5.51337C6.85337 0.833313 7.50004 1.42665 7.50004 2.65331V5.67331C7.50004 6.90665 6.84671 7.49998 5.51337 7.49998ZM2.82004 1.83331C1.92671 1.83331 1.83337 2.08665 1.83337 2.65331V5.67331C1.83337 6.24665 1.92671 6.49331 2.82004 6.49331H5.51337C6.40671 6.49331 6.50004 6.23998 6.50004 5.67331V2.65331C6.50004 2.07998 6.40671 1.83331 5.51337 1.83331H2.82004Z" fill="#4E5556"/>
<path d="M5.51337 15.1667H2.82004C1.48004 15.1667 0.833374 14.5133 0.833374 13.18V10.4867C0.833374 9.14667 1.48671 8.5 2.82004 8.5H5.51337C6.85337 8.5 7.50004 9.15333 7.50004 10.4867V13.18C7.50004 14.5133 6.84671 15.1667 5.51337 15.1667ZM2.82004 9.5C2.03337 9.5 1.83337 9.7 1.83337 10.4867V13.18C1.83337 13.9667 2.03337 14.1667 2.82004 14.1667H5.51337C6.30004 14.1667 6.50004 13.9667 6.50004 13.18V10.4867C6.50004 9.7 6.30004 9.5 5.51337 9.5H2.82004Z" fill="#4E5556"/>
</svg>
