<svg width="21" height="20" viewBox="0 0 21 20" fill="none" xmlns="http://www.w3.org/2000/svg">
<path d="M18.0001 5.60839C17.9834 5.60839 17.9584 5.60839 17.9334 5.60839C13.5251 5.16673 9.12505 5.00006 4.76672 5.44173L3.06672 5.60839C2.71672 5.64173 2.40839 5.39173 2.37505 5.04173C2.34172 4.69173 2.59172 4.39173 2.93339 4.35839L4.63339 4.19173C9.06672 3.74173 13.5584 3.91673 18.0584 4.35839C18.4001 4.39173 18.6501 4.70006 18.6167 5.04173C18.5917 5.36673 18.3167 5.60839 18.0001 5.60839Z" fill="#949D9E"/>
<path d="M7.58338 4.76675C7.55005 4.76675 7.51672 4.76675 7.47505 4.75842C7.14172 4.70008 6.90838 4.37508 6.96672 4.04175L7.15005 2.95008C7.28338 2.15008 7.46672 1.04175 9.40838 1.04175H11.5917C13.5417 1.04175 13.725 2.19175 13.85 2.95841L14.0334 4.04175C14.0917 4.38342 13.8584 4.70842 13.525 4.75842C13.1834 4.81675 12.8584 4.58342 12.8084 4.25008L12.625 3.16675C12.5084 2.44175 12.4834 2.30008 11.6 2.30008H9.41672C8.53338 2.30008 8.51672 2.41675 8.39172 3.15841L8.20005 4.24175C8.15005 4.55008 7.88338 4.76675 7.58338 4.76675Z" fill="#949D9E"/>
<path d="M13.175 18.9584H7.825C4.91666 18.9584 4.8 17.3501 4.70833 16.0501L4.16666 7.6584C4.14166 7.31673 4.40833 7.01673 4.75 6.99173C5.1 6.97506 5.39166 7.2334 5.41666 7.57506L5.95833 15.9667C6.05 17.2334 6.08333 17.7084 7.825 17.7084H13.175C14.925 17.7084 14.9583 17.2334 15.0417 15.9667L15.5833 7.57506C15.6083 7.2334 15.9083 6.97506 16.25 6.99173C16.5917 7.01673 16.8583 7.3084 16.8333 7.6584L16.2917 16.0501C16.2 17.3501 16.0833 18.9584 13.175 18.9584Z" fill="#949D9E"/>
<path d="M11.8834 14.375H9.1084C8.76673 14.375 8.4834 14.0917 8.4834 13.75C8.4834 13.4083 8.76673 13.125 9.1084 13.125H11.8834C12.2251 13.125 12.5084 13.4083 12.5084 13.75C12.5084 14.0917 12.2251 14.375 11.8834 14.375Z" fill="#949D9E"/>
<path d="M12.5834 11.0417H8.41675C8.07508 11.0417 7.79175 10.7584 7.79175 10.4167C7.79175 10.0751 8.07508 9.79175 8.41675 9.79175H12.5834C12.9251 9.79175 13.2084 10.0751 13.2084 10.4167C13.2084 10.7584 12.9251 11.0417 12.5834 11.0417Z" fill="#949D9E"/>
</svg>
